<svg xmlns="http://www.w3.org/2000/svg" width="410" height="404" viewBox="0 0 410 404">
  <defs>
    <linearGradient id="a" x1="55.37%" x2="63.33%" y1="56.14%" y2="17.36%">
      <stop offset="0%" stop-color="#41D1FF" />
      <stop offset="100%" stop-color="#BD34FE" />
    </linearGradient>
    <linearGradient id="b" x1="43.74%" x2="50.02%" y1="46.04%" y2="16.84%">
      <stop offset="0%" stop-color="#FFEA83" />
      <stop offset="8.33%" stop-color="#FFDD35" />
      <stop offset="100%" stop-color="#FFA800" />
    </linearGradient>
  </defs>
  <path fill="#41D1FF" d="M255.24 12.02L134.02 146.3a4.4 4.4 0 0 0 3.24 7.4h60.45l-51.65 73.38a4.4 4.4 0 0 0 3.58 6.94h34.35l-75.41 105.7c-2.34 3.28 1.9 7.3 4.87 4.73l200.3-176.4a4.4 4.4 0 0 0-2.9-7.7h-62.88l52.63-107.68c1.7-3.45-2.74-6.52-5.64-3.77Z" />
  <path fill="url(#a)" d="M330.65.04 169.76 147.71a4.4 4.4 0 0 0 2.97 7.67h64.41l-58.48 94.01c-1.98 3.19 1.72 6.87 4.67 4.42L347.41 131.5a4.4 4.4 0 0 0-2.9-7.64h-67.44l52.97-120.6c1.5-3.43-2.77-6.45-5.4-3.18Z" />
  <path fill="url(#b)" d="M128.38 357.89 356.6 126.1a4.4 4.4 0 0 0-3.1-7.52h-77.66l56.27-88.58c2.14-3.37-1.68-7.35-4.75-4.6L53.63 248.28a4.4 4.4 0 0 0 2.94 7.65h76.87l-50.72 97.64c-1.93 3.72 2.66 7.37 5.66 4.32Z" />
</svg>
